<svg width="65" height="36" viewBox="0 0 65 36" fill="none" xmlns="http://www.w3.org/2000/svg">
<path d="M51.0802 9.17483C36.4359 9.17483 36.4172 22.1126 36.4172 22.179C36.4172 22.179 35.406 35.1334 51.0802 35.1334C51.0802 35.1334 62.8593 35.7313 64.039 27.4937C64.1514 26.7629 63.5147 26.1152 62.6907 26.1152H58.5896C57.9903 26.1152 57.466 26.4473 57.2974 26.9622C56.9416 28.0417 55.687 29.769 51.3049 29.769C51.3049 29.769 45.6307 30.1011 44.7131 25.2682C44.582 24.5374 45.2375 23.8897 46.0615 23.8897H63.084C63.8143 23.8897 64.4323 23.3748 64.451 22.7271C64.5821 19.256 63.8705 9.19143 51.0802 9.19143V9.17483ZM45.5371 19.339C44.994 19.339 44.6195 18.874 44.7693 18.409C45.3124 16.9142 46.9041 14.1241 51.2113 14.1241C55.5184 14.1241 56.6982 17.0637 56.9416 18.5252C57.0165 18.957 56.642 19.3224 56.1551 19.3224H45.5184L45.5371 19.339ZM27.9528 16.333C27.4659 16.2001 27.4097 15.6188 27.8591 15.4029C29.4884 14.6721 31.4172 13.0611 31.4172 9.57342C31.4172 3.52804 26.6607 0.555176 20.6307 0.555176H1.77295C1.21115 0.555176 0.761719 0.953772 0.761719 1.45202V33.539C0.761719 34.0373 1.21115 34.4359 1.77295 34.4359H20.6307C20.6307 34.4359 32.7655 34.768 32.7655 24.4378C32.7655 24.4378 33.1775 17.8775 27.9715 16.3496L27.9528 16.333ZM9.50706 7.21506C9.50706 6.86629 9.82541 6.56734 10.2374 6.56734H20.6307C20.6307 6.56734 23.3273 6.56734 23.3273 10.0883C23.3273 13.6092 21.7543 14.1241 19.9378 14.1241H10.2374C9.84414 14.1241 9.50706 13.8417 9.50706 13.4763V7.19845V7.21506ZM20.0689 28.4071H10.2374C9.84414 28.4071 9.50706 28.1248 9.50706 27.7594V19.9868C9.50706 19.638 9.82541 19.339 10.2374 19.339H20.6307C20.6307 19.339 24.6569 19.3058 24.6382 24.0059C24.6382 27.9587 21.6419 28.3739 20.0689 28.4071ZM42.8592 1.91705V4.80687C42.8592 5.15564 43.1776 5.43798 43.5708 5.43798H57.8967C58.29 5.43798 58.6083 5.15564 58.6083 4.80687V1.91705C58.6083 1.56827 58.29 1.28594 57.8967 1.28594H43.5708C43.1776 1.28594 42.8592 1.56827 42.8592 1.91705Z" fill="white"/>
</svg>
