<svg width="57" height="49" viewBox="0 0 57 49" fill="none" xmlns="http://www.w3.org/2000/svg">
<path d="M56.573 29.6484V47.3859C56.573 47.8177 56.1797 48.1831 55.6741 48.1831H45.3557C44.8688 48.1831 44.4568 47.8343 44.4568 47.3859V30.894C44.4568 26.5592 42.7153 23.5864 38.3145 23.5864C34.9624 23.5864 32.9774 25.5794 32.0973 27.5225C31.7789 28.2201 31.704 29.1667 31.704 30.1466V47.4025C31.704 47.8343 31.3107 48.1997 30.8051 48.1997H20.4867C19.9998 48.1997 19.5878 47.8509 19.5878 47.4025C19.6066 43.018 19.7189 21.693 19.6066 16.694C19.6066 16.2456 19.9998 15.8968 20.5055 15.8968H30.8051C31.292 15.8968 31.704 16.2456 31.704 16.694V20.4806C31.704 20.4806 31.6478 20.5471 31.6291 20.5803H31.704V20.4806C33.3145 18.2884 36.1797 15.1494 42.6216 15.1494C50.5992 15.1494 56.573 19.7665 56.573 29.6982V29.6484ZM1.66645 48.1831H11.9848C12.4717 48.1831 12.8837 47.8343 12.8837 47.3859V16.6608C12.8837 16.2289 12.4905 15.8636 11.9848 15.8636H1.66645C1.17956 15.8636 0.767578 16.2123 0.767578 16.6608V47.3859C0.767578 47.8177 1.16083 48.1831 1.66645 48.1831Z" fill="white"/>
<path d="M12.9588 6.01499C12.9588 9.18715 10.0562 11.7614 6.47942 11.7614C2.90263 11.7614 0 9.18715 0 6.01499C0 2.84282 2.90263 0.268555 6.47942 0.268555C10.0562 0.268555 12.9588 2.84282 12.9588 6.01499Z" fill="white"/>
</svg>
