<svg width="48" height="42" viewBox="0 0 48 42" fill="none" xmlns="http://www.w3.org/2000/svg">
<path d="M36.4959 8.28236C34.987 8.28236 33.7513 9.36704 33.7513 10.7171C33.7513 12.0672 34.974 13.1519 36.4959 13.1519C38.0178 13.1519 39.2405 12.0672 39.2405 10.7171C39.2405 9.36704 38.0178 8.28236 36.4959 8.28236ZM24.3079 11.3979C17.9603 11.3979 12.7964 15.979 12.7964 21.6101C12.7964 27.2412 17.9603 31.8223 24.3079 31.8223C30.6556 31.8223 35.8195 27.2412 35.8195 21.6101C35.8195 15.979 30.6556 11.3979 24.3079 11.3979ZM24.3079 28.1413C20.2366 28.1413 16.9327 25.2103 16.9327 21.5986C16.9327 17.9868 20.2366 15.0559 24.3079 15.0559C28.3793 15.0559 31.6831 17.9868 31.6831 21.5986C31.6831 25.2103 28.3793 28.1413 24.3079 28.1413ZM47.5392 13.1173C47.5392 6.23993 41.2566 0.666504 33.5042 0.666504H14.9816C7.21618 0.666504 0.933594 6.23993 0.933594 13.1173V29.5491C0.933594 36.4264 7.21618 41.9998 14.9686 41.9998H33.4912C41.2436 41.9998 47.5262 36.4264 47.5262 29.5491V13.1173H47.5392ZM43.1427 29.5606C43.1427 34.2801 38.8242 38.1111 33.5042 38.1111H14.9816C9.66158 38.1111 5.34311 34.2801 5.34311 29.5606V13.1288C5.34311 8.40929 9.66158 4.57828 14.9816 4.57828H33.5042C38.8242 4.57828 43.1427 8.40929 43.1427 13.1288V29.5606Z" fill="white"/>
</svg>
