<svg width="74" height="75" viewBox="0 0 74 75" fill="none" xmlns="http://www.w3.org/2000/svg">
<path d="M36.2304 2.25299C36.1251 5.71966 36.1777 9.18632 36.3885 12.6397C36.428 13.3063 36.9153 13.8663 37.6001 13.8663C38.2322 13.8663 38.8512 13.3063 38.8117 12.6397C38.601 9.18632 38.5483 5.71966 38.6537 2.25299C38.6932 0.666322 36.2699 0.666322 36.2304 2.25299Z" fill="white"/>
<path d="M38.6275 12.3332C37.1261 8.15989 32.1874 5.89322 28.1047 7.67989C23.943 9.49322 22.1914 14.9866 24.0352 19.0666C26.8667 25.3199 35.0321 22.4932 40.2869 22.9199C46.2397 23.3999 48.3995 30.6932 47.0957 35.7999C46.1738 39.3999 42.0912 41.7466 38.5353 41.5866C36.9154 41.5199 35.3745 40.8532 34.3472 39.5599C33.86 38.9332 33.5175 38.2132 33.4517 37.4132C33.3858 36.5066 33.8995 34.9732 35.0321 35.8399C36.2832 36.7866 37.4949 34.6532 36.2569 33.7199C33.9258 31.9332 31.226 34.1999 31.0284 36.7466C30.8309 39.2932 32.5298 41.8399 34.7555 43.0532C40.0762 45.9866 47.9123 42.2799 49.4268 36.4666C50.7174 31.4799 49.2556 24.7732 44.7646 21.8532C41.8804 19.9732 38.4431 20.5066 35.2165 20.6399C31.9898 20.7732 27.2223 21.3732 25.9843 17.3999C25.1151 14.5866 26.419 10.9599 29.2373 9.86655C31.8845 8.83989 35.3086 10.2799 36.2832 13.0132C36.81 14.4932 39.1543 13.8532 38.6275 12.3599V12.3332Z" fill="white" stroke="white" stroke-width="0.5" stroke-miterlimit="10"/>
<path d="M36.9263 70.7466C37.0185 67.28 36.9659 63.8133 36.7551 60.36C36.7156 59.6933 36.2283 59.1333 35.5435 59.1333C34.9114 59.1333 34.2924 59.6933 34.3319 60.36C34.5426 63.8133 34.5953 67.28 34.5031 70.7466C34.4636 72.3333 36.8868 72.3333 36.9263 70.7466Z" fill="white"/>
<path d="M34.5194 60.6801C36.0208 64.8534 40.9727 67.1067 45.0553 65.3201C49.217 63.5067 50.9686 58.0134 49.1117 53.9334C46.2801 47.6934 38.1148 50.5201 32.86 50.1067C26.9072 49.6401 24.7342 42.3467 26.038 37.2401C26.9467 33.6401 31.0294 31.2934 34.5853 31.4401C36.2052 31.5067 37.746 32.1734 38.7733 33.4667C39.2606 34.0934 39.603 34.8134 39.6688 35.6134C39.7347 36.5201 39.2342 38.0667 38.1016 37.2001C36.8505 36.2534 35.6389 38.3867 36.8768 39.3201C39.2079 41.0934 41.9077 38.8267 42.1053 36.2934C42.3028 33.7601 40.6039 31.2001 38.3782 29.9867C33.0444 27.0801 25.2215 30.7734 23.7201 36.6001C22.4294 41.5867 23.9045 48.2934 28.3954 51.2134C31.2796 53.0801 34.717 52.5467 37.9436 52.4134C41.1702 52.2801 45.9377 51.6667 47.1757 55.6401C48.0581 58.4401 46.7543 62.0801 43.9359 63.1734C41.2887 64.2134 37.8646 62.7734 36.8768 60.0401C36.35 58.5601 33.9926 59.2001 34.5326 60.6934L34.5194 60.6801Z" fill="white" stroke="white" stroke-width="0.5" stroke-miterlimit="10"/>
<path d="M36.967 73.7067C17.1331 73.7067 1 57.4 1 37.3467C1 17.2933 17.1331 1 36.967 1C56.8009 1 72.934 17.3067 72.934 37.3467C72.934 57.3867 56.8009 73.6933 36.967 73.6933V73.7067ZM36.967 2.77333C18.0945 2.77333 2.7516 18.28 2.7516 37.3467C2.7516 56.4133 18.0945 71.9333 36.967 71.9333C55.8395 71.9333 71.1824 56.4133 71.1824 37.3467C71.1824 18.28 55.8395 2.77333 36.967 2.77333Z" fill="white" stroke="white" stroke-miterlimit="10"/>
</svg>
